<?xml version="1.0" encoding="UTF-8"?>
<svg id="Layer_1" data-name="Layer 1" xmlns="http://www.w3.org/2000/svg" viewBox="0 0 283.46 141.73">
  <defs>
    <style>
      .cls-1 {
        fill: #f26522;
      }

      .cls-1, .cls-2 {
        fill-rule: evenodd;
      }

      .cls-2 {
        fill: #231f20;
      }
    </style>
  </defs>
  <path class="cls-2" d="M222.48,102.59l1.46-6.96h1.36l-.76,3.62,1.77-1.7h1.77l-2.02,1.82,1.08,3.22h-1.36l-.7-2.34-.92.82-.32,1.52h-1.36ZM217.63,97.55h1.3l-.13.66c.32-.29.63-.49.91-.61.28-.12.58-.18.89-.18.42,0,.75.12.99.36.24.24.36.56.36.96,0,.18-.06.51-.18,1l-.61,2.85h-1.36l.62-2.86c.09-.43.14-.68.14-.77,0-.18-.05-.32-.16-.42-.11-.1-.25-.15-.43-.15-.2,0-.43.08-.67.25-.25.17-.44.39-.58.67-.11.2-.22.6-.36,1.21l-.43,2.07h-1.36l1.06-5.04ZM214.37,100.23c-.08.02-.19.04-.33.06-.68.08-1.13.2-1.34.36-.15.12-.22.27-.22.47,0,.16.06.3.17.41.11.11.26.17.45.17.21,0,.4-.05.58-.15.18-.1.32-.23.41-.39.09-.16.17-.41.24-.74l.04-.18ZM213.08,98.95l-1.33-.11c.15-.45.42-.8.8-1.05.38-.25.88-.38,1.5-.38s1.13.13,1.44.39c.31.26.47.58.47.96,0,.15-.01.31-.04.48-.03.17-.12.62-.28,1.35-.13.6-.2,1.03-.2,1.27,0,.22.04.45.12.72h-1.33c-.05-.18-.08-.37-.1-.57-.2.22-.43.39-.69.51-.26.12-.52.18-.78.18-.42,0-.76-.14-1.04-.41-.27-.28-.41-.63-.41-1.06,0-.48.15-.87.45-1.16.3-.29.83-.46,1.6-.52.65-.05,1.08-.12,1.3-.2.06-.19.09-.34.09-.46,0-.15-.06-.27-.18-.37-.12-.1-.29-.15-.52-.15-.24,0-.44.05-.58.15-.14.1-.24.24-.29.42ZM205.8,101.47h1.38c.58,0,.97-.04,1.17-.11.2-.07.36-.2.48-.37.12-.17.18-.35.18-.54,0-.23-.09-.42-.26-.57-.17-.15-.46-.22-.86-.22h-1.71l-.38,1.82ZM206.43,98.44h1.1c.49,0,.85-.03,1.06-.1.22-.07.38-.18.49-.34.11-.16.16-.33.16-.51s-.05-.32-.15-.44c-.1-.11-.25-.19-.43-.23-.11-.02-.36-.03-.76-.03h-1.12l-.34,1.64ZM204.13,102.59l1.46-6.96h2.38c.52,0,.88.02,1.09.05.34.05.63.14.87.29.24.14.42.33.54.57.12.24.18.5.18.79,0,.39-.11.72-.32,1-.22.28-.55.5-1,.64.35.1.63.27.83.52.2.25.3.54.3.85,0,.42-.12.81-.36,1.19-.24.38-.57.64-.98.81-.42.16-.99.25-1.72.25h-3.28ZM198.72,102.59l1.46-6.96h1.36l-1.46,6.96h-1.36ZM196.55,100.23c-.08.02-.19.04-.33.06-.68.08-1.13.2-1.34.36-.15.12-.22.27-.22.47,0,.16.06.3.17.41.11.11.26.17.45.17.21,0,.4-.05.58-.15.18-.1.32-.23.41-.39.09-.16.17-.41.24-.74l.04-.18ZM195.25,98.95l-1.33-.11c.15-.45.42-.8.8-1.05.38-.25.88-.38,1.5-.38s1.13.13,1.44.39c.31.26.47.58.47.96,0,.15-.01.31-.04.48-.03.17-.12.62-.28,1.35-.13.6-.2,1.03-.2,1.27,0,.22.04.45.12.72h-1.33c-.05-.18-.08-.37-.1-.57-.2.22-.43.39-.69.51-.26.12-.52.18-.78.18-.42,0-.76-.14-1.04-.41-.27-.28-.41-.63-.41-1.06,0-.48.15-.87.45-1.16.3-.29.83-.46,1.6-.52.65-.05,1.08-.12,1.3-.2.06-.19.09-.34.09-.46,0-.15-.06-.27-.18-.37-.12-.1-.29-.15-.52-.15-.24,0-.44.05-.58.15-.14.1-.24.24-.29.42ZM188.47,97.55h1.3l-.13.66c.32-.29.63-.49.91-.61.28-.12.58-.18.89-.18.42,0,.75.12.99.36.24.24.36.56.36.96,0,.18-.06.51-.17,1l-.61,2.85h-1.36l.62-2.86c.09-.43.14-.68.14-.77,0-.18-.05-.32-.16-.42-.11-.1-.25-.15-.43-.15-.2,0-.43.08-.67.25-.25.17-.44.39-.58.67-.11.2-.22.6-.36,1.21l-.43,2.07h-1.36l1.06-5.04ZM185.53,99.52c0-.33-.09-.59-.28-.78-.19-.2-.43-.29-.73-.29s-.55.09-.78.28c-.23.18-.4.45-.53.8-.13.35-.19.67-.19.97,0,.36.1.65.29.87.2.21.44.32.74.32.37,0,.68-.16.94-.48.36-.46.54-1.01.54-1.67ZM181.66,100.5c0-.94.26-1.68.79-2.24.53-.56,1.22-.84,2.07-.84.74,0,1.32.21,1.74.62.42.41.63.96.63,1.66,0,.82-.26,1.53-.78,2.12-.52.6-1.22.9-2.1.9-.47,0-.9-.1-1.26-.29-.37-.19-.64-.46-.82-.81-.18-.35-.27-.72-.27-1.12ZM179.81,97.55h1.36l-1.06,5.04h-1.36l1.06-5.04ZM180.21,95.63h1.36l-.26,1.23h-1.36l.26-1.23ZM175.87,98.56l.2-1.01h.67l.16-.79,1.54-.94-.35,1.73h.82l-.2,1.01h-.83l-.44,2.13c-.08.38-.12.6-.12.65,0,.11.03.19.1.24.07.06.18.09.36.09.06,0,.21-.01.45-.03l-.21,1.01c-.23.05-.47.07-.72.07-.48,0-.83-.09-1.04-.28-.22-.19-.33-.45-.33-.78,0-.16.06-.51.18-1.07l.43-2.03h-.67ZM173.33,100.23c-.08.02-.19.04-.33.06-.68.08-1.13.2-1.34.36-.15.12-.22.27-.22.47,0,.16.06.3.17.41.11.11.26.17.45.17.21,0,.4-.05.58-.15.18-.1.32-.23.41-.39.09-.16.17-.41.24-.74l.04-.18ZM172.03,98.95l-1.33-.11c.15-.45.42-.8.8-1.05.38-.25.88-.38,1.5-.38s1.13.13,1.44.39c.31.26.47.58.47.96,0,.15-.01.31-.04.48-.03.17-.12.62-.28,1.35-.13.6-.2,1.03-.2,1.27,0,.22.04.45.11.72h-1.33c-.05-.18-.08-.37-.1-.57-.2.22-.43.39-.69.51-.26.12-.52.18-.78.18-.42,0-.76-.14-1.04-.41-.27-.28-.41-.63-.41-1.06,0-.48.15-.87.45-1.16.3-.29.83-.46,1.6-.52.65-.05,1.08-.12,1.3-.2.06-.19.09-.34.09-.46,0-.15-.06-.27-.18-.37-.12-.1-.29-.15-.52-.15-.24,0-.44.05-.58.15-.14.1-.24.24-.29.42ZM165.25,97.55h1.3l-.13.66c.32-.29.63-.49.91-.61.28-.12.58-.18.89-.18.42,0,.75.12.99.36.24.24.36.56.36.96,0,.18-.06.51-.17,1l-.61,2.85h-1.36l.62-2.86c.09-.43.14-.68.14-.77,0-.18-.05-.32-.16-.42-.11-.1-.25-.15-.43-.15-.2,0-.43.08-.67.25-.25.17-.44.39-.58.67-.11.2-.22.6-.36,1.21l-.43,2.07h-1.36l1.06-5.04ZM161.37,97.55h1.28l-.19.95c.47-.72.98-1.08,1.53-1.08.19,0,.4.05.63.15l-.53,1.11c-.12-.04-.26-.07-.4-.07-.23,0-.47.09-.72.27-.24.18-.43.41-.57.71-.14.3-.27.77-.4,1.41l-.33,1.58h-1.36l1.06-5.04ZM158.75,99.66c0-.06,0-.11,0-.14,0-.38-.08-.66-.25-.85-.17-.19-.39-.28-.68-.28s-.53.11-.76.32c-.22.21-.37.53-.45.95h2.13ZM159.89,100.49h-3.42c0,.05,0,.1,0,.12,0,.34.1.61.29.82.19.21.43.31.71.31.46,0,.81-.23,1.07-.7l1.22.2c-.24.49-.56.86-.95,1.1-.4.24-.84.37-1.34.37-.68,0-1.23-.22-1.66-.64-.43-.43-.64-1-.64-1.71s.19-1.31.58-1.85c.52-.73,1.27-1.09,2.24-1.09.62,0,1.11.19,1.47.57.36.38.55.92.55,1.61,0,.33-.03.63-.1.89ZM152.1,98.56l.2-1.01h.67l.16-.79,1.54-.94-.35,1.73h.82l-.2,1.01h-.83l-.44,2.13c-.08.38-.12.6-.12.65,0,.11.03.19.1.24.07.06.18.09.36.09.06,0,.21-.01.45-.03l-.21,1.01c-.23.05-.47.07-.72.07-.48,0-.83-.09-1.04-.28-.22-.19-.33-.45-.33-.78,0-.16.06-.51.18-1.07l.43-2.03h-.67ZM146.89,97.55h1.3l-.13.66c.32-.29.63-.49.91-.61.28-.12.58-.18.89-.18.42,0,.75.12.99.36.24.24.36.56.36.96,0,.18-.06.51-.17,1l-.61,2.85h-1.36l.62-2.86c.09-.43.14-.68.14-.77,0-.18-.05-.32-.16-.42-.11-.1-.25-.15-.43-.15-.2,0-.43.08-.67.25-.25.17-.44.39-.58.67-.11.2-.22.6-.36,1.21l-.43,2.07h-1.36l1.06-5.04ZM143.06,102.59l1.46-6.96h1.43l-1.46,6.96h-1.43ZM134.83,101.19l1.32-.21c.12.28.26.48.44.59.17.12.41.17.71.17s.56-.07.74-.21c.13-.1.19-.21.19-.35,0-.09-.03-.18-.1-.25-.07-.07-.26-.16-.56-.26-.82-.27-1.33-.49-1.52-.65-.31-.25-.46-.57-.46-.97s.15-.74.45-1.03c.41-.4,1.03-.6,1.84-.6.65,0,1.14.12,1.47.36.33.24.54.56.63.97l-1.25.22c-.07-.18-.17-.32-.32-.42-.2-.12-.44-.19-.73-.19s-.49.05-.61.14c-.13.1-.19.21-.19.33s.06.23.19.31c.08.05.33.14.76.27.66.19,1.1.38,1.33.57.32.26.47.58.47.95,0,.48-.2.9-.6,1.25-.4.35-.97.53-1.7.53s-1.29-.13-1.68-.4c-.4-.27-.67-.64-.81-1.13ZM133.9,95.63h1.37l-.22,1.08c-.13.63-.34,1.07-.63,1.33-.29.26-.66.4-1.11.4l.14-.63c.22-.05.4-.14.52-.27.12-.13.21-.33.28-.6h-.62l.28-1.31ZM130.29,100.23c-.08.02-.19.04-.33.06-.68.08-1.13.2-1.34.36-.15.12-.22.27-.22.47,0,.16.06.3.17.41.11.11.26.17.45.17.21,0,.4-.05.58-.15.18-.1.32-.23.41-.39.09-.16.17-.41.24-.74l.04-.18ZM129,98.95l-1.33-.11c.15-.45.42-.8.8-1.05s.88-.38,1.5-.38,1.13.13,1.44.39c.31.26.47.58.47.96,0,.15-.01.31-.04.48-.03.17-.12.62-.28,1.35-.13.6-.2,1.03-.2,1.27,0,.22.04.45.12.72h-1.33c-.05-.18-.08-.37-.1-.57-.2.22-.43.39-.69.51-.26.12-.52.18-.78.18-.42,0-.76-.14-1.03-.41-.27-.28-.41-.63-.41-1.06,0-.48.15-.87.45-1.16.3-.29.83-.46,1.6-.52.65-.05,1.08-.12,1.3-.2.06-.19.09-.34.09-.46,0-.15-.06-.27-.18-.37-.12-.1-.29-.15-.52-.15s-.44.05-.58.15c-.14.1-.24.24-.29.42ZM125.43,97.55h1.36l-1.06,5.04h-1.36l1.06-5.04ZM125.83,95.63h1.36l-.26,1.23h-1.36l.26-1.23ZM119.94,100.54c0,.36.09.64.28.85.18.2.41.3.68.3.25,0,.48-.08.7-.25.22-.17.39-.43.52-.78.13-.35.19-.68.19-1.01,0-.36-.1-.66-.3-.89-.2-.23-.43-.34-.69-.34-.4,0-.74.22-.99.67-.26.45-.39.93-.39,1.45ZM123.09,102.59h-1.29l.11-.54c-.25.24-.49.41-.73.51-.24.1-.51.15-.81.15-.52,0-.94-.18-1.27-.54-.32-.36-.49-.88-.49-1.58,0-.81.23-1.54.69-2.19.46-.65,1.07-.98,1.83-.98.69,0,1.2.27,1.55.81l.57-2.6h1.36l-1.53,6.96ZM113.57,97.55h1.3l-.13.66c.32-.29.63-.49.91-.61.28-.12.58-.18.89-.18.42,0,.75.12.99.36.24.24.36.56.36.96,0,.18-.06.51-.18,1l-.61,2.85h-1.36l.62-2.86c.09-.43.14-.68.14-.77,0-.18-.05-.32-.16-.42-.11-.1-.25-.15-.43-.15-.2,0-.43.08-.67.25-.25.17-.44.39-.58.67-.11.2-.22.6-.36,1.21l-.43,2.07h-1.36l1.06-5.04ZM109.75,102.59l1.46-6.96h1.43l-1.46,6.96h-1.43Z"/>
  <g>
    <g>
      <path class="cls-1" d="M74.34,87.45l-23.32.02.17-.82,16.99-.49c3.26-.12,6.42-.3,9.48-1.34,6.28-2.1,11.28-6.37,12.75-11.66,1.58-5.67-2.05-11.19-8.89-11.67,5.79-1.7,10.73-5.37,12.04-10.09,1.71-6.14-1.38-9.24-6.6-10.37,8.68-.14,15.46,2.78,13.15,11.08-1.31,4.73-6.37,8.32-12.13,9.89,6.76.5,10.46,6.94,8.67,12.55-1.87,5.84-6.58,9.47-12.85,11.56-3.06,1.04-6.23,1.22-9.48,1.34Z"/>
      <path class="cls-1" d="M62.1,84.52l-10.94.54c0-.28.01-.22-.02-.49l27.72-8.2.09-1-28.31,7.32c-.09-.27-.1-.19-.21-.45l29.63-16.41-.3-.82-30.28,15.65c-.18-.26-.1-.15-.32-.38l35.23-32.9-.43-.89-36.09,32.62c-.17-.12-.28-.21-.46-.32l25.83-37.17h-1.09s-26.43,36.4-26.43,36.4c-.15-.05-.31-.1-.46-.14l15.35-36.32h-.98l-16.51,36.04c-.2,0-.67,0-.67,0l10.69-38.6,19.96.06c9.44-.54,16.9,2.01,14.45,10.83-1.31,4.73-6.25,8.4-12.01,9.97l-.03.13c6.84.48,10.69,5.98,9.11,11.65-1.47,5.29-6.73,9.43-13.01,11.52-3.06,1.04-6.23,1.22-9.48,1.34Z"/>
    </g>
    <g>
      <path class="cls-1" d="M115.94,87.39c1.48,0,5.21-.19,6.11-4.43.49-2.3.18-3.9-2.23-4.24v-.05c1.99-.37,3.24-1.76,3.65-3.69.76-3.57-1.28-4.34-3.95-4.34h-6.21l-3.56,16.74h6.19ZM116.26,73.22h2.16c1.18,0,1.83.9,1.56,2.13-.34,1.62-1.52,2.13-2.29,2.13h-2.34l.91-4.27h0ZM114.81,80.06h2.04c1.76,0,2.13.9,1.81,2.39-.5,2.34-2.17,2.36-2.91,2.36h-1.95l1.01-4.75Z"/>
      <path class="cls-1" d="M133.31,79.36c.45-2.13.3-3.92-3.85-3.92-1.25,0-2.36.21-3.22.77-.88.53-1.51,1.44-1.81,2.85h3.2c.2-.93.47-1.79,1.61-1.79s1.17.72.96,1.72l-.19.9c-3.03-.05-6.05.12-6.88,3.99-.43,2.04.04,3.73,2.31,3.73,1.41,0,2.49-.58,3.44-1.79h.05l-.19,1.55h3.04c.08-.72.15-1.46.3-2.18l1.24-5.84h0ZM129.61,81.73h0c-.27,1.28-.52,3.87-2.45,3.87-1.07,0-.99-1.02-.81-1.85.44-2.09,1.62-1.95,3.26-2.02Z"/>
      <path class="cls-1" d="M139.1,75.68h-3.27l-2.49,11.71h3.27l1.71-8.07c.22-1.04.58-1.85,1.62-1.85s1.06.81.83,1.85l-1.71,8.07h3.27l2-9.39c.35-1.62-.83-2.55-2.38-2.55-1.23,0-2.19.37-3.06,1.41h-.05l.25-1.18Z"/>
      <polygon class="cls-1" points="147.16 87.39 148.51 81.01 148.56 81.01 150.24 87.39 153.93 87.39 151.62 80.89 156.05 75.68 152.64 75.68 148.64 80.62 148.6 80.62 150.72 70.65 147.45 70.65 143.89 87.39 147.16 87.39"/>
      <path class="cls-1" d="M162.18,87.62c4.22,0,5.32-2.57,6.1-6.24.68-3.2.8-5.94-3.51-5.94s-5.36,2.74-6.04,5.94c-.78,3.66-.77,6.24,3.45,6.24h0ZM162.62,85.53h0c-1.21,0-1.34-.76-.59-4.34.52-2.43.9-3.66,2.29-3.66s1.25,1.23.73,3.66c-.76,3.57-1.22,4.34-2.43,4.34Z"/>
      <path class="cls-1" d="M176.95,70.58c-.39-.02-.76-.05-1.15-.05-3.99,0-4.09,1.79-4.78,5.15h-1.48l-.43,2.02h1.46l-2.06,9.69h3.27l2.06-9.69h1.53l.43-2.02h-1.53l.3-1.41c.25-1.18.64-1.69,1.94-1.6l.44-2.09Z"/>
      <path class="cls-1" d="M184.37,87.39c1.48,0,5.21-.19,6.11-4.43.49-2.3.18-3.9-2.23-4.24v-.05c1.99-.37,3.24-1.76,3.65-3.69.76-3.57-1.28-4.34-3.95-4.34h-6.21l-3.56,16.74h6.19ZM184.69,73.22h2.16c1.18,0,1.82.9,1.56,2.13-.35,1.62-1.52,2.13-2.29,2.13h-2.34l.91-4.27h0ZM183.24,80.06h2.04c1.76,0,2.13.9,1.81,2.39-.5,2.34-2.17,2.36-2.91,2.36h-1.95l1.01-4.75Z"/>
      <path class="cls-1" d="M201.74,79.36c.45-2.13.3-3.92-3.85-3.92-1.25,0-2.36.21-3.22.77-.88.53-1.51,1.44-1.81,2.85h3.2c.2-.93.47-1.79,1.61-1.79s1.17.72.96,1.72l-.19.9c-3.03-.05-6.05.12-6.88,3.99-.43,2.04.04,3.73,2.31,3.73,1.41,0,2.49-.58,3.44-1.79h.05l-.19,1.55h3.04c.08-.72.15-1.46.3-2.18l1.24-5.84h0ZM198.04,81.73h0c-.27,1.28-.52,3.87-2.45,3.87-1.07,0-.99-1.02-.81-1.85.44-2.09,1.62-1.95,3.26-2.02Z"/>
      <path class="cls-1" d="M204.26,75.68l-2.49,11.71h3.27l1.36-6.38c.25-1.16.65-2.83,3.48-2.64l.62-2.92c-1.32,0-2.52.39-3.41,1.74h-.05l.32-1.51h-3.11Z"/>
      <path class="cls-1" d="M212.96,87.62c4.22,0,5.32-2.57,6.1-6.24.68-3.2.8-5.94-3.51-5.94s-5.36,2.74-6.04,5.94c-.78,3.66-.77,6.24,3.45,6.24h0ZM213.4,85.53h0c-1.21,0-1.34-.76-.59-4.34.52-2.43.89-3.66,2.29-3.66s1.25,1.23.73,3.66c-.76,3.57-1.22,4.34-2.43,4.34Z"/>
      <path class="cls-1" d="M228.07,87.39l3.56-16.74h-3.27l-1.31,6.14h-.05c-.46-1-1.2-1.34-2.38-1.34-3.29,0-3.97,3.64-4.48,6.01-.51,2.41-1.43,6.17,1.96,6.17,1.25,0,2.24-.39,3.08-1.53h.05l-.28,1.3h3.11ZM223.86,85.6h0c-1.18,0-1.13-1.23-.5-4.17.5-2.34.82-3.96,2.23-3.96s.98,1.62.48,3.96c-.63,2.95-1.1,4.17-2.21,4.17Z"/>
      <path class="cls-1" d="M240.33,79.36c.45-2.13.3-3.92-3.85-3.92-1.25,0-2.36.21-3.22.77-.88.53-1.51,1.44-1.81,2.85h3.2c.2-.93.47-1.79,1.61-1.79s1.17.72.96,1.72l-.19.9c-3.03-.05-6.05.12-6.88,3.99-.43,2.04.04,3.73,2.31,3.73,1.41,0,2.49-.58,3.44-1.79h.05l-.19,1.55h3.04c.08-.72.15-1.46.3-2.18l1.24-5.84h0ZM236.62,81.73h0c-.27,1.28-.52,3.87-2.45,3.87-1.07,0-.99-1.02-.81-1.85.44-2.09,1.62-1.95,3.26-2.02Z"/>
      <path class="cls-1" d="M206.69,61.99h2.83l-.64,2.35h-2.83l.64-2.35h0ZM167.95,59.67h2.83l-.64,2.35h-2.83l.64-2.35h0ZM122.69,42.75h2.83l-.64,2.35h-2.83l.64-2.35h0ZM158.19,46.27l-.44,1.42h1.85l-1.21,4.7h-2.38l-.4,1.45h2.41s-1.75,6.8-1.75,6.8h2.97l3.33-12.94h2.35l-3.33,12.94h2.97l3.33-12.94h2.48l-2.09,8.07c-.33,1.28.79,2.02,2.28,2.02,1.18,0,2.09-.29,2.97-1.12l-.99,3.96h3.24c.09-.61.95-4.26,1.11-4.86l.78-2.99c.3-.65.8-1.25,1.52-1.25,1,0,1.01.64.8,1.47l-1.64,6.38h3.13l1.91-7.43c.33-1.28-.79-2.02-2.28-2.02-1.17,0-2.17.37-3,1.18l.89-3.41h5.39l.44-1.42h-26.61ZM175.83,47.69l-1.79,6.72c-.21.83-.59,1.77-1.59,1.77s-1.02-.6-.81-1.43l1.84-7.06h2.35ZM149.06,60.62h-4.44l.37-1.47h3.87c.98,0,2.42-.55,2.92-2.49.32-1.23-.21-2.65-1.98-2.65h-2.9l.39-1.6h3.37c1.19,0,2.11-1.02,2.45-2.36.26-1.02.2-2.38-1.57-2.38h-3.61l.37-1.47h4.35c2.2,0,4.59.95,3.96,3.59-.48,1.97-1.49,2.96-3.81,3.33,2.4.33,2.88,1.92,2.39,3.83-.9,3.52-4.64,3.67-6.13,3.67h0ZM116.39,46.27h-4.99l-.44,1.42h7.25l-.7,2.76c-.44-.79-1.69-1.09-2.82-1.09-3.15,0-4.03,2.55-4.51,4.42-.49,1.91-1.14,5.21,2.1,5.21,1.2,0,2.69-.28,3.54-1.18l-.78,2.82h2.97l3.32-12.93h8.02l-.7,2.76c-.44-.79-1.15-1.06-2.28-1.06-3.15,0-3.94,2.62-4.42,4.49-.49,1.91-1.23,5.14,2.01,5.14,1.2,0,2.14-.31,2.99-1.21l-.77,2.82h2.95s1.76-7.09,1.76-7.09c.53-1.79,1.09-2.49,2.03-2.49,1.13,0,1.08.97.48,3.3-.48,1.85-.84,3.47-2.2,3.47-.1,0-.21-.06-.29-.08l-.22.84c.32.29.88.41,1.5.41,3.15,0,3.96-2.7,4.44-4.57.49-1.91,1.2-4.97-2.04-4.97-1.2,0-2.19.35-3,1.25l.74-3h6.02l.44-1.42h-17.32l-1.53-7-2.62,1.16,2.22,5.84h-.84l-2.77-4.8-2.17,1.59,2.6,3.21h0ZM114.11,51.79c.36-.53.86-.83,1.66-.83,1.69.02,1.32,1.31.84,3.16l-.18.68-2.32-3.01h0ZM115.88,56.26c-.41.79-.93,1.13-1.77,1.13-1.43,0-1.45-.96-.86-3.28.08-.33.16-.64.25-.92l2.37,3.07h0ZM126.19,60.62l.77-2.82s.02,0-.77,2.82h0ZM125.64,57.42c-1.13,0-1.08-.97-.48-3.3.48-1.85.78-3.14,2.14-3.14s.93,1.28.46,3.14c-.6,2.33-1.05,3.3-2.11,3.3h0ZM212.87,50.37c-.26-.7-1.09-.9-2.95-.9-3.04,0-3.55.34-4.27,2.98-.37,1.43-.69,3.15,1.34,3.15.78,0,2.4.03,2.4.03,1.83,0,1.74.63,1.36,1.83-.46,1.68-.86,1.96-2.07,1.96-1.99,0-1.31-1.15-.99-2.31h-3.43c-.69,2.2-.57,3.56,2.46,3.56h3.47c1.78,0,3.21-.17,3.97-3.09.62-2.59.3-3.25-1.44-3.25h-2.37c-1.39.03-1.79-.26-1.45-1.66.47-1.64.81-1.8,1.96-1.8,1.27,0,1.73.37,1.48,1.37h2.98l1.19-4.56h2.38l-3.33,12.94h2.97l3.33-12.94h8.37l-.57,1.99s-1.27-.07-2.4-.07c-3.15,0-4.29,2.29-4.95,4.9-.65,2.54-1.29,6.29,2.55,6.29.66,0,1.53-.06,2.31-.27.13.89.57,1.65,1.3,2.52l3.2-1.75s-1.6-.1-2.26-1.35c1.29-.36,1.95-1.06,2.32-2.36.26-.92.26-1.97-1.65-1.97-2.09,0-3.11,2.06-2.91,3.83-.26.09-.47.14-.59.14-1.87,0-1.35-1.73-.69-4.6.55-2.39.93-4.01,2.28-4.01h4.15l1.03-3.29h2.58l-3.33,12.94h2.97l3.33-12.94h1.67l.44-1.42h-19.95l-1.53-7-2.62,1.16,2.22,5.84h-.84l-2.77-4.8-2.17,1.59,2.6,3.21h-21.14l-.44,1.42h7.2l-.7,2.76c-.44-.79-1.69-1.09-2.82-1.09-3.15,0-4.14,2.74-4.62,4.61-.49,1.91-1.02,5.02,2.21,5.02,1.2,0,2.69-.28,3.54-1.18l-.78,2.82h2.97l3.32-12.93h8.79l-.63,2.68h0ZM197.41,51.9c.36-.6.88-.95,1.74-.94,1.69.02,1.32,1.31.84,3.16l-.23.83-2.35-3.05h0ZM198.93,56.38c-.4.7-.91,1.01-1.7,1.01-1.43,0-1.46-.96-.86-3.28l.21-.77,2.35,3.04h0ZM169.41,41.77h0c-.73,2.8-2.02,2.96-3.62,2.96h-3.13c-2.62,0-2.83-1.12-2.3-2.96h3.1c-.29.95-.68,1.83.97,1.83,1.08,0,1.45-.26,1.86-1.77l3.13-.05Z"/>
    </g>
  </g>
</svg>